<svg xmlns="http://www.w3.org/2000/svg" xmlns:xlink="http://www.w3.org/1999/xlink" width="500" zoomAndPan="magnify" viewBox="0 0 375 374.999991" height="500" preserveAspectRatio="xMidYMid meet" version="1.0"><defs><g/><clipPath id="e5d2f6aa31"><path d="M 37.5 180.121094 L 337.5 180.121094 L 337.5 206.847656 L 37.5 206.847656 Z M 37.5 180.121094 " clip-rule="nonzero"/></clipPath></defs><g fill="#f4931d" fill-opacity="1"><g transform="translate(69.685519, 233.704144)"><g><path d="M 38.90625 -81.25 C 50.914062 -81.25 61.472656 -78.265625 70.578125 -72.296875 L 62.890625 -56.34375 C 58.679688 -58.789062 54.164062 -60.800781 49.34375 -62.375 C 44.53125 -63.945312 40.476562 -64.734375 37.1875 -64.734375 C 31.289062 -64.734375 28.34375 -62.78125 28.34375 -58.875 C 28.34375 -56.351562 29.796875 -54.328125 32.703125 -52.796875 C 35.609375 -51.265625 39.144531 -49.941406 43.3125 -48.828125 C 47.488281 -47.722656 51.660156 -46.382812 55.828125 -44.8125 C 60.003906 -43.25 63.546875 -40.707031 66.453125 -37.1875 C 69.359375 -33.664062 70.8125 -29.226562 70.8125 -23.875 C 70.8125 -16.144531 67.785156 -10.117188 61.734375 -5.796875 C 55.691406 -1.472656 48.003906 0.6875 38.671875 0.6875 C 32.015625 0.6875 25.4375 -0.457031 18.9375 -2.75 C 12.4375 -5.050781 6.773438 -8.191406 1.953125 -12.171875 L 9.875 -27.890625 C 13.925781 -24.367188 18.707031 -21.476562 24.21875 -19.21875 C 29.726562 -16.96875 34.625 -15.84375 38.90625 -15.84375 C 42.195312 -15.84375 44.757812 -16.429688 46.59375 -17.609375 C 48.425781 -18.796875 49.34375 -20.539062 49.34375 -22.84375 C 49.34375 -25.0625 48.289062 -26.914062 46.1875 -28.40625 C 44.082031 -29.894531 41.460938 -31.003906 38.328125 -31.734375 C 35.191406 -32.460938 31.785156 -33.4375 28.109375 -34.65625 C 24.441406 -35.882812 21.039062 -37.222656 17.90625 -38.671875 C 14.769531 -40.128906 12.148438 -42.441406 10.046875 -45.609375 C 7.941406 -48.785156 6.890625 -52.59375 6.890625 -57.03125 C 6.890625 -64.382812 9.8125 -70.257812 15.65625 -74.65625 C 21.507812 -79.050781 29.257812 -81.25 38.90625 -81.25 Z M 38.90625 -81.25 "/></g></g></g><g fill="#f4931d" fill-opacity="1"><g transform="translate(143.595628, 233.704144)"><g><path d="M 52.21875 0 L 31.09375 0 L -0.109375 -80.34375 L 21.6875 -80.34375 L 42.234375 -21.234375 L 62.78125 -80.34375 L 83.78125 -80.34375 Z M 52.21875 0 "/></g></g></g><g fill="#f4931d" fill-opacity="1"><g transform="translate(227.260945, 233.704144)"><g><path d="M 8.03125 -80.34375 L 43.03125 -80.34375 C 53.289062 -80.34375 61.25 -77.910156 66.90625 -73.046875 C 72.570312 -68.191406 75.40625 -61.285156 75.40625 -52.328125 C 75.40625 -42.921875 72.570312 -35.613281 66.90625 -30.40625 C 61.25 -25.207031 53.289062 -22.609375 43.03125 -22.609375 L 28.46875 -22.609375 L 28.46875 0 L 8.03125 0 Z M 28.46875 -64.265625 L 28.46875 -38.671875 L 42 -38.671875 C 46.519531 -38.671875 50.003906 -39.78125 52.453125 -42 C 54.898438 -44.21875 56.125 -47.429688 56.125 -51.640625 C 56.125 -55.773438 54.898438 -58.910156 52.453125 -61.046875 C 50.003906 -63.191406 46.519531 -64.265625 42 -64.265625 Z M 28.46875 -64.265625 "/></g></g></g><g clip-path="url(#e5d2f6aa31)"><path fill="#171616" d="M 37.5 180.121094 L 337.546875 180.121094 L 337.546875 206.847656 L 37.5 206.847656 Z M 37.5 180.121094 " fill-opacity="1" fill-rule="nonzero"/></g><g fill="#fffcfc" fill-opacity="1"><g transform="translate(41.629479, 197.64392)"><g><path d="M 4.375 0.078125 C 3.632812 0.078125 2.925781 -0.0351562 2.25 -0.265625 C 1.570312 -0.503906 1.046875 -0.820312 0.671875 -1.21875 L 1.078125 -2.03125 C 1.441406 -1.664062 1.921875 -1.367188 2.515625 -1.140625 C 3.117188 -0.921875 3.738281 -0.8125 4.375 -0.8125 C 5.269531 -0.8125 5.941406 -0.972656 6.390625 -1.296875 C 6.835938 -1.628906 7.0625 -2.054688 7.0625 -2.578125 C 7.0625 -2.984375 6.9375 -3.300781 6.6875 -3.53125 C 6.445312 -3.769531 6.148438 -3.953125 5.796875 -4.078125 C 5.453125 -4.210938 4.96875 -4.359375 4.34375 -4.515625 C 3.582031 -4.703125 2.976562 -4.882812 2.53125 -5.0625 C 2.09375 -5.238281 1.710938 -5.503906 1.390625 -5.859375 C 1.066406 -6.222656 0.90625 -6.710938 0.90625 -7.328125 C 0.90625 -7.835938 1.039062 -8.296875 1.3125 -8.703125 C 1.582031 -9.117188 1.988281 -9.453125 2.53125 -9.703125 C 3.082031 -9.953125 3.769531 -10.078125 4.59375 -10.078125 C 5.164062 -10.078125 5.722656 -9.992188 6.265625 -9.828125 C 6.816406 -9.671875 7.289062 -9.457031 7.6875 -9.1875 L 7.328125 -8.34375 C 6.910156 -8.625 6.460938 -8.832031 5.984375 -8.96875 C 5.515625 -9.101562 5.050781 -9.171875 4.59375 -9.171875 C 3.71875 -9.171875 3.054688 -9 2.609375 -8.65625 C 2.171875 -8.320312 1.953125 -7.890625 1.953125 -7.359375 C 1.953125 -6.960938 2.070312 -6.640625 2.3125 -6.390625 C 2.5625 -6.148438 2.867188 -5.96875 3.234375 -5.84375 C 3.597656 -5.71875 4.085938 -5.578125 4.703125 -5.421875 C 5.441406 -5.242188 6.035156 -5.066406 6.484375 -4.890625 C 6.929688 -4.710938 7.3125 -4.441406 7.625 -4.078125 C 7.945312 -3.722656 8.109375 -3.242188 8.109375 -2.640625 C 8.109375 -2.140625 7.972656 -1.679688 7.703125 -1.265625 C 7.429688 -0.847656 7.015625 -0.519531 6.453125 -0.28125 C 5.890625 -0.0390625 5.195312 0.078125 4.375 0.078125 Z M 4.375 0.078125 "/></g></g></g><g fill="#fffcfc" fill-opacity="1"><g transform="translate(56.882423, 197.64392)"><g><path d="M 1.625 -9.984375 L 2.6875 -9.984375 L 2.6875 0 L 1.625 0 Z M 1.625 -9.984375 "/></g></g></g><g fill="#fffcfc" fill-opacity="1"><g transform="translate(67.676074, 197.64392)"><g><path d="M 8.4375 0 L 6.15625 -3.203125 C 5.90625 -3.179688 5.640625 -3.171875 5.359375 -3.171875 L 2.6875 -3.171875 L 2.6875 0 L 1.625 0 L 1.625 -9.984375 L 5.359375 -9.984375 C 6.640625 -9.984375 7.640625 -9.675781 8.359375 -9.0625 C 9.078125 -8.457031 9.4375 -7.625 9.4375 -6.5625 C 9.4375 -5.78125 9.238281 -5.117188 8.84375 -4.578125 C 8.457031 -4.046875 7.894531 -3.660156 7.15625 -3.421875 L 9.59375 0 Z M 5.328125 -4.0625 C 6.316406 -4.0625 7.070312 -4.28125 7.59375 -4.71875 C 8.125 -5.15625 8.390625 -5.769531 8.390625 -6.5625 C 8.390625 -7.375 8.125 -7.992188 7.59375 -8.421875 C 7.070312 -8.859375 6.316406 -9.078125 5.328125 -9.078125 L 2.6875 -9.078125 L 2.6875 -4.0625 Z M 5.328125 -4.0625 "/></g></g></g><g fill="#fffcfc" fill-opacity="1"><g transform="translate(84.46769, 197.64392)"><g/></g></g><g fill="#fffcfc" fill-opacity="1"><g transform="translate(94.691459, 197.64392)"><g><path d="M 9.921875 -9.984375 L 5.5 0 L 4.46875 0 L 0.046875 -9.984375 L 1.1875 -9.984375 L 5 -1.3125 L 8.859375 -9.984375 Z M 9.921875 -9.984375 "/></g></g></g><g fill="#fffcfc" fill-opacity="1"><g transform="translate(111.126891, 197.64392)"><g><path d="M 8.6875 -0.90625 L 8.6875 0 L 1.625 0 L 1.625 -9.984375 L 8.46875 -9.984375 L 8.46875 -9.078125 L 2.6875 -9.078125 L 2.6875 -5.515625 L 7.84375 -5.515625 L 7.84375 -4.625 L 2.6875 -4.625 L 2.6875 -0.90625 Z M 8.6875 -0.90625 "/></g></g></g><g fill="#fffcfc" fill-opacity="1"><g transform="translate(127.149169, 197.64392)"><g><path d="M 8.4375 0 L 6.15625 -3.203125 C 5.90625 -3.179688 5.640625 -3.171875 5.359375 -3.171875 L 2.6875 -3.171875 L 2.6875 0 L 1.625 0 L 1.625 -9.984375 L 5.359375 -9.984375 C 6.640625 -9.984375 7.640625 -9.675781 8.359375 -9.0625 C 9.078125 -8.457031 9.4375 -7.625 9.4375 -6.5625 C 9.4375 -5.78125 9.238281 -5.117188 8.84375 -4.578125 C 8.457031 -4.046875 7.894531 -3.660156 7.15625 -3.421875 L 9.59375 0 Z M 5.328125 -4.0625 C 6.316406 -4.0625 7.070312 -4.28125 7.59375 -4.71875 C 8.125 -5.15625 8.390625 -5.769531 8.390625 -6.5625 C 8.390625 -7.375 8.125 -7.992188 7.59375 -8.421875 C 7.070312 -8.859375 6.316406 -9.078125 5.328125 -9.078125 L 2.6875 -9.078125 L 2.6875 -4.0625 Z M 5.328125 -4.0625 "/></g></g></g><g fill="#fffcfc" fill-opacity="1"><g transform="translate(143.940782, 197.64392)"><g><path d="M 1.625 -9.984375 L 2.6875 -9.984375 L 2.6875 0 L 1.625 0 Z M 1.625 -9.984375 "/></g></g></g><g fill="#fffcfc" fill-opacity="1"><g transform="translate(154.734437, 197.64392)"><g><path d="M 3.5625 -9.078125 L 0.0625 -9.078125 L 0.0625 -9.984375 L 8.125 -9.984375 L 8.125 -9.078125 L 4.625 -9.078125 L 4.625 0 L 3.5625 0 Z M 3.5625 -9.078125 "/></g></g></g><g fill="#fffcfc" fill-opacity="1"><g transform="translate(169.403245, 197.64392)"><g><path d="M 7.890625 -2.671875 L 2.328125 -2.671875 L 1.125 0 L 0.03125 0 L 4.59375 -9.984375 L 5.640625 -9.984375 L 10.203125 0 L 9.09375 0 Z M 7.5 -3.53125 L 5.109375 -8.890625 L 2.703125 -3.53125 Z M 7.5 -3.53125 "/></g></g></g><g fill="#fffcfc" fill-opacity="1"><g transform="translate(186.109373, 197.64392)"><g><path d="M 4.375 0.078125 C 3.632812 0.078125 2.925781 -0.0351562 2.25 -0.265625 C 1.570312 -0.503906 1.046875 -0.820312 0.671875 -1.21875 L 1.078125 -2.03125 C 1.441406 -1.664062 1.921875 -1.367188 2.515625 -1.140625 C 3.117188 -0.921875 3.738281 -0.8125 4.375 -0.8125 C 5.269531 -0.8125 5.941406 -0.972656 6.390625 -1.296875 C 6.835938 -1.628906 7.0625 -2.054688 7.0625 -2.578125 C 7.0625 -2.984375 6.9375 -3.300781 6.6875 -3.53125 C 6.445312 -3.769531 6.148438 -3.953125 5.796875 -4.078125 C 5.453125 -4.210938 4.96875 -4.359375 4.34375 -4.515625 C 3.582031 -4.703125 2.976562 -4.882812 2.53125 -5.0625 C 2.09375 -5.238281 1.710938 -5.503906 1.390625 -5.859375 C 1.066406 -6.222656 0.90625 -6.710938 0.90625 -7.328125 C 0.90625 -7.835938 1.039062 -8.296875 1.3125 -8.703125 C 1.582031 -9.117188 1.988281 -9.453125 2.53125 -9.703125 C 3.082031 -9.953125 3.769531 -10.078125 4.59375 -10.078125 C 5.164062 -10.078125 5.722656 -9.992188 6.265625 -9.828125 C 6.816406 -9.671875 7.289062 -9.457031 7.6875 -9.1875 L 7.328125 -8.34375 C 6.910156 -8.625 6.460938 -8.832031 5.984375 -8.96875 C 5.515625 -9.101562 5.050781 -9.171875 4.59375 -9.171875 C 3.71875 -9.171875 3.054688 -9 2.609375 -8.65625 C 2.171875 -8.320312 1.953125 -7.890625 1.953125 -7.359375 C 1.953125 -6.960938 2.070312 -6.640625 2.3125 -6.390625 C 2.5625 -6.148438 2.867188 -5.96875 3.234375 -5.84375 C 3.597656 -5.71875 4.085938 -5.578125 4.703125 -5.421875 C 5.441406 -5.242188 6.035156 -5.066406 6.484375 -4.890625 C 6.929688 -4.710938 7.3125 -4.441406 7.625 -4.078125 C 7.945312 -3.722656 8.109375 -3.242188 8.109375 -2.640625 C 8.109375 -2.140625 7.972656 -1.679688 7.703125 -1.265625 C 7.429688 -0.847656 7.015625 -0.519531 6.453125 -0.28125 C 5.890625 -0.0390625 5.195312 0.078125 4.375 0.078125 Z M 4.375 0.078125 "/></g></g></g><g fill="#fffcfc" fill-opacity="1"><g transform="translate(201.362317, 197.64392)"><g/></g></g><g fill="#fffcfc" fill-opacity="1"><g transform="translate(211.586086, 197.64392)"><g><path d="M 5.359375 -9.984375 C 6.640625 -9.984375 7.640625 -9.675781 8.359375 -9.0625 C 9.078125 -8.457031 9.4375 -7.625 9.4375 -6.5625 C 9.4375 -5.5 9.078125 -4.664062 8.359375 -4.0625 C 7.640625 -3.457031 6.640625 -3.15625 5.359375 -3.15625 L 2.6875 -3.15625 L 2.6875 0 L 1.625 0 L 1.625 -9.984375 Z M 5.328125 -4.078125 C 6.316406 -4.078125 7.070312 -4.289062 7.59375 -4.71875 C 8.125 -5.15625 8.390625 -5.769531 8.390625 -6.5625 C 8.390625 -7.375 8.125 -7.992188 7.59375 -8.421875 C 7.070312 -8.859375 6.316406 -9.078125 5.328125 -9.078125 L 2.6875 -9.078125 L 2.6875 -4.078125 Z M 5.328125 -4.078125 "/></g></g></g><g fill="#fffcfc" fill-opacity="1"><g transform="translate(228.306457, 197.64392)"><g><path d="M 8.4375 0 L 6.15625 -3.203125 C 5.90625 -3.179688 5.640625 -3.171875 5.359375 -3.171875 L 2.6875 -3.171875 L 2.6875 0 L 1.625 0 L 1.625 -9.984375 L 5.359375 -9.984375 C 6.640625 -9.984375 7.640625 -9.675781 8.359375 -9.0625 C 9.078125 -8.457031 9.4375 -7.625 9.4375 -6.5625 C 9.4375 -5.78125 9.238281 -5.117188 8.84375 -4.578125 C 8.457031 -4.046875 7.894531 -3.660156 7.15625 -3.421875 L 9.59375 0 Z M 5.328125 -4.0625 C 6.316406 -4.0625 7.070312 -4.28125 7.59375 -4.71875 C 8.125 -5.15625 8.390625 -5.769531 8.390625 -6.5625 C 8.390625 -7.375 8.125 -7.992188 7.59375 -8.421875 C 7.070312 -8.859375 6.316406 -9.078125 5.328125 -9.078125 L 2.6875 -9.078125 L 2.6875 -4.0625 Z M 5.328125 -4.0625 "/></g></g></g><g fill="#fffcfc" fill-opacity="1"><g transform="translate(245.09807, 197.64392)"><g><path d="M 5.984375 0.078125 C 5.003906 0.078125 4.109375 -0.140625 3.296875 -0.578125 C 2.492188 -1.015625 1.863281 -1.617188 1.40625 -2.390625 C 0.957031 -3.160156 0.734375 -4.03125 0.734375 -5 C 0.734375 -5.957031 0.957031 -6.820312 1.40625 -7.59375 C 1.863281 -8.363281 2.492188 -8.96875 3.296875 -9.40625 C 4.109375 -9.851562 5.003906 -10.078125 5.984375 -10.078125 C 6.972656 -10.078125 7.863281 -9.859375 8.65625 -9.421875 C 9.457031 -8.984375 10.085938 -8.375 10.546875 -7.59375 C 11.003906 -6.820312 11.234375 -5.957031 11.234375 -5 C 11.234375 -4.03125 11.003906 -3.160156 10.546875 -2.390625 C 10.085938 -1.617188 9.457031 -1.015625 8.65625 -0.578125 C 7.863281 -0.140625 6.972656 0.078125 5.984375 0.078125 Z M 5.984375 -0.859375 C 6.773438 -0.859375 7.488281 -1.035156 8.125 -1.390625 C 8.769531 -1.742188 9.269531 -2.238281 9.625 -2.875 C 9.988281 -3.507812 10.171875 -4.21875 10.171875 -5 C 10.171875 -5.769531 9.988281 -6.472656 9.625 -7.109375 C 9.269531 -7.742188 8.769531 -8.238281 8.125 -8.59375 C 7.488281 -8.945312 6.773438 -9.125 5.984375 -9.125 C 5.203125 -9.125 4.488281 -8.945312 3.84375 -8.59375 C 3.195312 -8.238281 2.691406 -7.742188 2.328125 -7.109375 C 1.960938 -6.472656 1.78125 -5.769531 1.78125 -5 C 1.78125 -4.21875 1.960938 -3.507812 2.328125 -2.875 C 2.691406 -2.238281 3.195312 -1.742188 3.84375 -1.390625 C 4.488281 -1.035156 5.203125 -0.859375 5.984375 -0.859375 Z M 5.984375 -0.859375 "/></g></g></g><g fill="#fffcfc" fill-opacity="1"><g transform="translate(263.542322, 197.64392)"><g><path d="M 2.703125 0.078125 C 2.128906 0.078125 1.597656 -0.0390625 1.109375 -0.28125 C 0.628906 -0.53125 0.234375 -0.882812 -0.078125 -1.34375 L 0.5625 -2.046875 C 1.113281 -1.234375 1.828125 -0.828125 2.703125 -0.828125 C 3.941406 -0.828125 4.5625 -1.5625 4.5625 -3.03125 L 4.5625 -9.078125 L 0.90625 -9.078125 L 0.90625 -9.984375 L 5.609375 -9.984375 L 5.609375 -3.0625 C 5.609375 -2.019531 5.363281 -1.234375 4.875 -0.703125 C 4.382812 -0.179688 3.660156 0.078125 2.703125 0.078125 Z M 2.703125 0.078125 "/></g></g></g><g fill="#fffcfc" fill-opacity="1"><g transform="translate(277.171112, 197.64392)"><g><path d="M 8.6875 -0.90625 L 8.6875 0 L 1.625 0 L 1.625 -9.984375 L 8.46875 -9.984375 L 8.46875 -9.078125 L 2.6875 -9.078125 L 2.6875 -5.515625 L 7.84375 -5.515625 L 7.84375 -4.625 L 2.6875 -4.625 L 2.6875 -0.90625 Z M 8.6875 -0.90625 "/></g></g></g><g fill="#fffcfc" fill-opacity="1"><g transform="translate(293.19339, 197.64392)"><g><path d="M 5.96875 0.078125 C 4.976562 0.078125 4.082031 -0.140625 3.28125 -0.578125 C 2.488281 -1.015625 1.863281 -1.617188 1.40625 -2.390625 C 0.957031 -3.160156 0.734375 -4.03125 0.734375 -5 C 0.734375 -5.957031 0.957031 -6.820312 1.40625 -7.59375 C 1.863281 -8.375 2.492188 -8.984375 3.296875 -9.421875 C 4.097656 -9.859375 4.992188 -10.078125 5.984375 -10.078125 C 6.722656 -10.078125 7.40625 -9.953125 8.03125 -9.703125 C 8.65625 -9.453125 9.1875 -9.085938 9.625 -8.609375 L 8.953125 -7.953125 C 8.171875 -8.734375 7.1875 -9.125 6 -9.125 C 5.21875 -9.125 4.5 -8.941406 3.84375 -8.578125 C 3.195312 -8.222656 2.691406 -7.726562 2.328125 -7.09375 C 1.960938 -6.46875 1.78125 -5.769531 1.78125 -5 C 1.78125 -4.21875 1.960938 -3.507812 2.328125 -2.875 C 2.691406 -2.25 3.195312 -1.753906 3.84375 -1.390625 C 4.5 -1.035156 5.21875 -0.859375 6 -0.859375 C 7.195312 -0.859375 8.179688 -1.253906 8.953125 -2.046875 L 9.625 -1.390625 C 9.1875 -0.910156 8.648438 -0.546875 8.015625 -0.296875 C 7.390625 -0.046875 6.707031 0.078125 5.96875 0.078125 Z M 5.96875 0.078125 "/></g></g></g><g fill="#fffcfc" fill-opacity="1"><g transform="translate(309.928005, 197.64392)"><g><path d="M 3.5625 -9.078125 L 0.0625 -9.078125 L 0.0625 -9.984375 L 8.125 -9.984375 L 8.125 -9.078125 L 4.625 -9.078125 L 4.625 0 L 3.5625 0 Z M 3.5625 -9.078125 "/></g></g></g><g fill="#fffcfc" fill-opacity="1"><g transform="translate(324.596826, 197.64392)"><g><path d="M 4.375 0.078125 C 3.632812 0.078125 2.925781 -0.0351562 2.25 -0.265625 C 1.570312 -0.503906 1.046875 -0.820312 0.671875 -1.21875 L 1.078125 -2.03125 C 1.441406 -1.664062 1.921875 -1.367188 2.515625 -1.140625 C 3.117188 -0.921875 3.738281 -0.8125 4.375 -0.8125 C 5.269531 -0.8125 5.941406 -0.972656 6.390625 -1.296875 C 6.835938 -1.628906 7.0625 -2.054688 7.0625 -2.578125 C 7.0625 -2.984375 6.9375 -3.300781 6.6875 -3.53125 C 6.445312 -3.769531 6.148438 -3.953125 5.796875 -4.078125 C 5.453125 -4.210938 4.96875 -4.359375 4.34375 -4.515625 C 3.582031 -4.703125 2.976562 -4.882812 2.53125 -5.0625 C 2.09375 -5.238281 1.710938 -5.503906 1.390625 -5.859375 C 1.066406 -6.222656 0.90625 -6.710938 0.90625 -7.328125 C 0.90625 -7.835938 1.039062 -8.296875 1.3125 -8.703125 C 1.582031 -9.117188 1.988281 -9.453125 2.53125 -9.703125 C 3.082031 -9.953125 3.769531 -10.078125 4.59375 -10.078125 C 5.164062 -10.078125 5.722656 -9.992188 6.265625 -9.828125 C 6.816406 -9.671875 7.289062 -9.457031 7.6875 -9.1875 L 7.328125 -8.34375 C 6.910156 -8.625 6.460938 -8.832031 5.984375 -8.96875 C 5.515625 -9.101562 5.050781 -9.171875 4.59375 -9.171875 C 3.71875 -9.171875 3.054688 -9 2.609375 -8.65625 C 2.171875 -8.320312 1.953125 -7.890625 1.953125 -7.359375 C 1.953125 -6.960938 2.070312 -6.640625 2.3125 -6.390625 C 2.5625 -6.148438 2.867188 -5.96875 3.234375 -5.84375 C 3.597656 -5.71875 4.085938 -5.578125 4.703125 -5.421875 C 5.441406 -5.242188 6.035156 -5.066406 6.484375 -4.890625 C 6.929688 -4.710938 7.3125 -4.441406 7.625 -4.078125 C 7.945312 -3.722656 8.109375 -3.242188 8.109375 -2.640625 C 8.109375 -2.140625 7.972656 -1.679688 7.703125 -1.265625 C 7.429688 -0.847656 7.015625 -0.519531 6.453125 -0.28125 C 5.890625 -0.0390625 5.195312 0.078125 4.375 0.078125 Z M 4.375 0.078125 "/></g></g></g></svg>